<?xml version="1.0" encoding="UTF-8" standalone="no"?>
<!-- Created with Inkscape (http://www.inkscape.org/) -->

<svg
   xmlns:dc="http://purl.org/dc/elements/1.1/"
   xmlns:cc="http://creativecommons.org/ns#"
   xmlns:rdf="http://www.w3.org/1999/02/22-rdf-syntax-ns#"
   xmlns:svg="http://www.w3.org/2000/svg"
   xmlns="http://www.w3.org/2000/svg"
   xmlns:sodipodi="http://sodipodi.sourceforge.net/DTD/sodipodi-0.dtd"
   xmlns:inkscape="http://www.inkscape.org/namespaces/inkscape"
   width="210mm"
   height="297mm"
   viewBox="0 0 210 297"
   version="1.1"
   id="svg8"
   inkscape:version="0.92.4 (5da689c313, 2019-01-14)"
   sodipodi:docname="Bathroom Sign.svg">
  <defs
     id="defs2" />
  <sodipodi:namedview
     id="base"
     pagecolor="#ffffff"
     bordercolor="#666666"
     borderopacity="1.0"
     inkscape:pageopacity="0.0"
     inkscape:pageshadow="2"
     inkscape:zoom="0.7"
     inkscape:cx="-1207.4362"
     inkscape:cy="468.6333"
     inkscape:document-units="mm"
     inkscape:current-layer="layer1"
     showgrid="false"
     inkscape:window-width="1920"
     inkscape:window-height="1001"
     inkscape:window-x="-9"
     inkscape:window-y="137"
     inkscape:window-maximized="1"
     inkscape:snap-to-guides="false"
     inkscape:snap-grids="false"
     inkscape:snap-others="false"
     inkscape:object-nodes="false"
     inkscape:snap-nodes="false"
     inkscape:snap-global="false" />
  <metadata
     id="metadata5">
    <rdf:RDF>
      <cc:Work
         rdf:about="">
        <dc:format>image/svg+xml</dc:format>
        <dc:type
           rdf:resource="http://purl.org/dc/dcmitype/StillImage" />
        <dc:title></dc:title>
      </cc:Work>
    </rdf:RDF>
  </metadata>
  <g
     inkscape:label="Layer 1"
     inkscape:groupmode="layer"
     id="layer1">
    <path
       style="fill:#044eb1;fill-opacity:1;stroke:none;stroke-width:0.15549055;stroke-miterlimit:4;stroke-dasharray:none;stroke-dashoffset:0;stroke-opacity:1"
       d="m -256.65701,195.67201 h 47.7591 v 57.02072 h -47.7591 z"
       id="rect847"
       inkscape:connector-curvature="0"
       sodipodi:nodetypes="ccccc" />
    <style
       id="style860">
.MsftOfcThm_Background1_Fill_v2 {
 fill:#FFFFFF; 
}
</style>
    <g
       id="g866"
       transform="matrix(0.26458333,0,0,0.26458333,-257.53421,201.23973)">
      <circle
         id="circle862"
         class="MsftOfcThm_Background1_Fill_v2"
         r="8"
         cy="11"
         cx="48.099998"
         style="fill:#ffffff" />
      <path
         id="path864"
         class="MsftOfcThm_Background1_Fill_v2"
         d="M 69.9,51.8 62.7,27 c -0.2,-1 -0.8,-1.8 -1.6,-2.2 -2.4,-1.6 -5.2,-2.6 -8.4,-3.4 -1.6,-0.2 -3,-0.4 -4.6,-0.4 -1.6,0 -3,0.2 -4.6,0.4 -3.2,0.6 -6,1.8 -8.4,3.4 -0.8,0.6 -1.4,1.2 -1.6,2.2 l -7.4,24.8 c -0.6,2.2 0.6,4.4 2.8,5 0.4,0.2 0.8,0.2 1.2,0.2 1.8,0 3.4,-1.2 3.8,-2.8 l 6.2,-21 v 7 L 32.7,65 h 5.4 v 28 h 8 V 65 h 4 v 28 h 8 V 65 h 5.4 L 56.1,40.2 v -7 l 6.2,21 c 0.6,1.8 2.2,2.8 3.8,2.8 0.4,0 0.8,0 1.2,-0.2 2,-0.6 3.2,-2.8 2.6,-5 z"
         inkscape:connector-curvature="0"
         style="fill:#ffffff" />
    </g>
    <style
       id="style879">
.MsftOfcThm_Background1_Fill_v2 {
 fill:#FFFFFF; 
}
</style>
    <g
       id="g885"
       transform="matrix(0.26458333,0,0,0.26458333,-234.09955,201.33423)">
      <circle
         id="circle881"
         class="MsftOfcThm_Background1_Fill_v2"
         r="8"
         cy="11"
         cx="48"
         style="fill:#ffffff" />
      <path
         id="path883"
         class="MsftOfcThm_Background1_Fill_v2"
         d="M 69.8,52.2 64.2,28.4 C 64,27.6 63.6,26.8 63,26.2 60.6,24.2 57.8,22.8 54.6,21.8 52.4,21.4 50.2,21 48,21 c -2.2,0 -4.4,0.4 -6.6,1 -3.2,0.8 -6,2.4 -8.4,4.4 -0.6,0.6 -1,1.4 -1.2,2.2 l -5.6,23.8 c 0,0.2 -0.2,0.6 -0.2,1 0,2.2 1.8,4 4,4 1.8,0 3.4,-1.4 3.8,-3 L 38,37 v 56 h 8 V 57 h 4 v 36 h 8 V 36.8 l 4.2,17.4 c 0.4,1.6 2,3 3.8,3 2.2,0 4,-1.8 4,-4 0,-0.4 -0.2,-0.8 -0.2,-1 z"
         inkscape:connector-curvature="0"
         style="fill:#ffffff" />
    </g>
    <rect
       style="fill:#044eb1;fill-opacity:1;stroke:none;stroke-width:0.40799999;stroke-miterlimit:4;stroke-dasharray:none;stroke-dashoffset:0;stroke-opacity:1"
       id="rect898"
       width="3.7417655"
       height="4.6053686"
       x="-256.84601"
       y="240.33887" />
    <path
       style="fill:#ffffff;fill-opacity:1;stroke:none;stroke-width:0.3041698;stroke-miterlimit:4;stroke-dasharray:none;stroke-dashoffset:0;stroke-opacity:1"
       d="m -234.00588,199.4511 h 2.45684 v 29.35407 h -2.45684 z"
       id="rect900"
       inkscape:connector-curvature="0" />
    <rect
       style="fill:#ffffff;fill-opacity:1;stroke:none;stroke-width:0.2140591;stroke-miterlimit:4;stroke-dasharray:none;stroke-dashoffset:0;stroke-opacity:1"
       id="rect900-9"
       width="0.9392184"
       height="38.028992"
       x="234.99182"
       y="201.27707"
       transform="matrix(-0.05304265,0.99859225,-0.99998363,-0.00572176,0,0)" />
    <text
       xml:space="preserve"
       style="font-style:normal;font-variant:normal;font-weight:normal;font-stretch:normal;font-size:9.8777771px;line-height:1.25;font-family:latin;-inkscape-font-specification:latin;letter-spacing:0px;word-spacing:0px;fill:#000000;fill-opacity:1;stroke:none;stroke-width:0.26458332"
       x="-253.14005"
       y="244.94423"
       id="text919"><tspan
         sodipodi:role="line"
         id="tspan917"
         x="-253.14005"
         y="244.94423"
         style="font-size:8.46666622px;fill:#f9f9f9;stroke-width:0.26458332">Restroom</tspan></text>
  </g>
</svg>
